<?xml version="1.0" encoding="UTF-8" standalone="no"?>
<!-- Created with Inkscape (http://www.inkscape.org/) -->

<svg
   width="120"
   height="120"
   viewBox="0 0 120 120"
   version="1.1"
   id="svg1"
   xmlns="http://www.w3.org/2000/svg"
   xmlns:svg="http://www.w3.org/2000/svg">
  <defs
     id="defs1" />
  <g
     id="layer1">
    <path
       id="path8"
       style="color:#000000;-inkscape-font-specification:Carlito;fill:#ffffff;-inkscape-stroke:none"
       d="m 41.517578,33.485665 c -2.939009,0 -5.674242,0.488955 -8.128906,1.529297 -2.328745,0.971478 -4.384929,2.32384 -6.072266,4.044922 -1.637845,1.671271 -2.909281,3.644828 -3.773437,5.835938 -8.64e-4,0.0022 -0.003,0.0037 -0.0039,0.0059 -0.855135,2.143444 -1.294921,4.400524 -1.294921,6.691406 0,2.730766 0.376119,5.16858 1.28125,7.304688 l 0.0078,0.01953 0.0098,0.01953 c 0.857046,1.944836 2.005169,3.663389 3.447265,5.070313 l 0.01367,0.01172 0.01172,0.01367 c 1.398806,1.332197 2.997658,2.425487 4.753906,3.253907 l 0.02148,0.0098 0.02148,0.0098 c 1.557114,0.705107 3.143931,1.336334 4.759766,1.894531 1.532556,0.529429 3.038227,1.045118 4.515625,1.546875 l 0.02344,0.0078 0.02539,0.0078 c 1.261255,0.404554 2.327738,0.900527 3.220703,1.466797 l 0.03516,0.02344 0.03711,0.02148 c 0.814658,0.484915 1.378028,1.027102 1.8125,1.6875 l 0.01562,0.02344 0.01563,0.02344 c 0.310407,0.453671 0.554687,1.139245 0.554687,2.333984 0,1.148939 -0.180729,2.109657 -0.505859,2.951172 l -0.0059,0.01758 -0.0078,0.01758 c -0.297507,0.79955 -0.701564,1.416579 -1.269532,1.966797 l -0.01758,0.01758 -0.01563,0.01563 c -0.539256,0.539257 -1.201324,0.971934 -2.097656,1.310547 -0.848253,0.320452 -1.90696,0.511719 -3.222656,0.511719 -1.616204,0 -2.874358,-0.23919 -3.816406,-0.613281 -1.183216,-0.510723 -2.161789,-1.039151 -2.916016,-1.554688 -0.910862,-0.651657 -1.670668,-1.230114 -2.25,-1.71289 l 0.103516,0.08984 c -0.945047,-0.862868 -2.147324,-1.666015 -3.789063,-1.666015 -0.881068,0 -1.839004,0.260655 -2.628906,0.753906 -0.69215,0.424558 -1.268586,1.012743 -1.671875,1.646484 l -0.01172,0.01758 -3.40625,5.527343 1.511719,1.681641 c 2.249416,2.502869 4.993275,4.506094 8.140625,5.970703 l 0.01563,0.0078 0.01563,0.0078 c 3.241779,1.46198 6.790895,2.183594 10.535156,2.183594 3.10029,0 5.978005,-0.49944 8.564453,-1.560547 2.512256,-1.030669 4.714338,-2.49576 6.496094,-4.375 1.782649,-1.851194 3.151652,-4.043278 4.064453,-6.488281 l 0.002,-0.0059 0.002,-0.0078 C 59.553541,80.591687 60,77.959121 60,75.218087 60,72.650559 59.590606,70.30842 58.638672,68.25129 57.798573,66.378801 56.631747,64.725047 55.162109,63.386056 53.794782,62.089658 52.223715,61.020293 50.490234,60.200509 48.930017,59.436222 47.34011,58.756891 45.71875,58.167306 44.186829,57.610244 42.681787,57.067786 41.205078,56.5384 c -1.296563,-0.464806 -2.417976,-0.99293 -3.384766,-1.564453 -0.822286,-0.52638 -1.434254,-1.104653 -1.908203,-1.753907 -0.278274,-0.406962 -0.496093,-0.985469 -0.496093,-2.042968 0,-0.830708 0.133983,-1.524496 0.378906,-2.154297 l 0.0039,-0.01367 0.0059,-0.01367 c 0.247356,-0.653727 0.571124,-1.151204 1.017578,-1.597656 0.446891,-0.446893 0.998028,-0.805442 1.77539,-1.089844 l 0.01953,-0.0078 0.01953,-0.0059 c 0.756356,-0.288136 1.730269,-0.46875 2.964843,-0.46875 1.333075,0 2.336329,0.190083 3.025391,0.458984 l 0.04102,0.01563 0.04102,0.01562 c 0.99344,0.354801 1.767402,0.736685 2.31836,1.097657 l 0.05078,0.0332 0.05078,0.03125 c 0.748602,0.44916 1.338413,0.854323 1.75,1.183594 l 0.06445,0.05273 0.06641,0.04687 c 0.860406,0.614574 1.833277,1.189453 3.257812,1.189453 1.80762,0 3.614942,-1.344897 4.375,-2.763672 l 0.002,-0.0059 0.0039,-0.0059 2.894531,-5.46875 -1.50586,-1.576172 C 55.965884,37.961882 53.467618,36.287418 50.646484,35.1634 h -0.002 C 47.83754,34.034451 44.769481,33.485665 41.517531,33.485665 Z" />
    <path
       id="path6"
       style="color:#000000;-inkscape-font-specification:Carlito;fill:#f3f3f3;fill-opacity:1;-inkscape-stroke:none"
       d="m 78.058594,19.277344 c -4.119899,0 -7.992648,0.773589 -11.513672,2.34375 -3.481135,1.525011 -6.523555,3.724204 -9.025391,6.535156 -9.54e-4,0.0011 -9.04e-4,0.0028 -0.002,0.0039 -1.728385,1.923454 -3.175123,4.108244 -4.349609,6.515625 2.219722,1.136838 4.225645,2.619627 5.949219,4.423828 L 60.623,40.675775 a 1.4942945,1.4942945 0 0 1 0.240234,1.730469 l -2.841797,5.369141 0.03906,-0.115235 a 1.4942945,1.4942945 0 0 1 -0.09961,0.228516 1.4942945,1.4942945 0 0 1 -0.002,0.0039 1.4942945,1.4942945 0 0 0 -0.002,0.002 c -1.040476,1.940337 -3.141765,3.550781 -5.689453,3.550781 -0.966373,1e-6 -1.799412,-0.225501 -2.511719,-0.535156 0.03734,2.681601 0.320027,5.253712 0.859375,7.705078 0.172242,0.08197 0.348069,0.15435 0.519532,0.238282 1.86569,0.883116 3.564448,2.039584 5.044922,3.441406 1.622305,1.481365 2.901958,3.299839 3.816406,5.333984 1.063576,2.300228 1.498047,4.865035 1.498047,7.589844 0,0.273326 -0.0072,0.544784 -0.01563,0.816406 1.558387,1.149781 3.246155,2.137059 5.05664,2.945313 l 0.0098,0.0059 0.01172,0.0039 c 3.519988,1.539996 7.386501,2.294922 11.501953,2.294922 4.140541,0 8.010848,-0.753398 11.511718,-2.298828 l 0.0059,-0.0039 0.0059,-0.002 c 3.477577,-1.552491 6.504695,-3.753111 8.982419,-6.542969 2.498253,-2.781663 4.407883,-6.089135 5.718753,-9.833984 1.3495,-3.776171 2.00782,-7.89332 2.00782,-12.300782 0,-4.380204 -0.6583,-8.483477 -2.00586,-12.255859 -1.30948,-3.770618 -3.21768,-7.093462 -5.718753,-9.878906 -2.475742,-2.81578 -5.50637,-5.017407 -8.986299,-6.542998 -3.501541,-1.575194 -7.377251,-2.347656 -11.521484,-2.347656 z m 0,12.591797 c 2.2887,0 4.227753,0.419132 5.929687,1.214843 l 0.01953,0.0098 0.02148,0.0098 c 1.746956,0.783889 3.169702,1.881092 4.384765,3.388672 l 0.01563,0.01953 0.01562,0.01953 c 1.233522,1.480232 2.219725,3.343757 2.927735,5.6875 l 0.0059,0.01758 0.0059,0.01953 c 0.723327,2.290544 1.109375,4.965525 1.109375,8.046875 0,3.081349 -0.384982,5.773346 -1.111329,8.097657 l -0.0039,0.0098 -0.002,0.0098 c -0.707669,2.318212 -1.696865,4.192046 -2.945312,5.71289 l -0.002,0.002 -0.002,0.002 c -1.214279,1.484118 -2.642127,2.577147 -4.398437,3.365234 l -0.0059,0.0039 -0.0059,0.002 c -1.708195,0.776453 -3.660279,1.1875 -5.958984,1.1875 -2.295565,0 -4.261283,-0.410749 -6.003906,-1.191406 -1.72806,-0.786602 -3.166852,-1.885656 -4.416016,-3.382812 -1.246043,-1.520918 -2.247604,-3.398113 -2.980469,-5.710938 -0.701655,-2.329515 -1.076172,-5.025264 -1.076172,-8.107422 0,-3.086878 0.375288,-5.770023 1.076172,-8.068359 5.63e-4,-0.0018 0.0014,-0.004 0.002,-0.0059 0.734856,-2.344375 1.736967,-4.214437 2.972656,-5.697266 l 0.0059,-0.0098 0.0078,-0.0078 c 1.252537,-1.525817 2.689961,-2.632333 4.414063,-3.416016 l 0.0078,-0.0039 0.0078,-0.0039 C 73.814198,32.287855 75.7698,31.86936 78.058504,31.86936 Z" />
  </g>
</svg>
